<svg width="32" height="32" viewBox="0 0 32 32" fill="none" xmlns="http://www.w3.org/2000/svg">
<path fill-rule="evenodd" clip-rule="evenodd" d="M16 30.9333C24.2475 30.9333 30.9333 24.2475 30.9333 16C30.9333 7.75255 24.2475 1.06667 16 1.06667C7.75255 1.06667 1.06667 7.75255 1.06667 16C1.06667 24.2475 7.75255 30.9333 16 30.9333ZM16 32C24.8366 32 32 24.8366 32 16C32 7.16344 24.8366 0 16 0C7.16344 0 0 7.16344 0 16C0 24.8366 7.16344 32 16 32Z" fill="#BDBDBD"/>
<path fill-rule="evenodd" clip-rule="evenodd" d="M16.871 6.5026C16.6622 6.3255 16.3717 6.38247 16.2222 6.62986L10.8393 15.5363C10.6036 15.9262 10.6079 16.4519 10.8499 16.8363L16.2275 25.378C16.3811 25.6219 16.6725 25.6722 16.8784 25.4903C17.0842 25.3084 17.1267 24.9633 16.9731 24.7194L11.5956 16.1777L16.9785 7.2712C17.128 7.02382 17.0799 6.67971 16.871 6.5026Z" fill="#BDBDBD"/>
</svg>
