<svg width="56" height="56" viewBox="0 0 56 56" fill="none" xmlns="http://www.w3.org/2000/svg">
<path fill-rule="evenodd" clip-rule="evenodd" d="M28 52.5C41.531 52.5 52.5 41.531 52.5 28C52.5 14.469 41.531 3.5 28 3.5C14.469 3.5 3.5 14.469 3.5 28C3.5 41.531 14.469 52.5 28 52.5ZM28 56C43.464 56 56 43.464 56 28C56 12.536 43.464 0 28 0C12.536 0 0 12.536 0 28C0 43.464 12.536 56 28 56Z" fill="#FFFCFC"/>
<path fill-rule="evenodd" clip-rule="evenodd" d="M44.8002 14.7002C45.96 14.7002 46.9002 15.6404 46.9002 16.8002L46.9002 47.6002C46.9002 48.76 45.96 49.7002 44.8002 49.7002C43.6404 49.7002 42.7002 48.76 42.7002 47.6002L42.7002 16.8002C42.7002 15.6404 43.6404 14.7002 44.8002 14.7002Z" fill="#FFFCFC"/>
<path fill-rule="evenodd" clip-rule="evenodd" d="M36.3998 24.5C37.5596 24.5 38.4998 25.4402 38.4998 26.6L38.4998 51.8C38.4998 52.9598 37.5596 53.9 36.3998 53.9C35.24 53.9 34.2998 52.9598 34.2998 51.8L34.2998 26.6C34.2998 25.4402 35.24 24.5 36.3998 24.5Z" fill="#FFFCFC"/>
<path fill-rule="evenodd" clip-rule="evenodd" d="M28.0004 32.8999C29.1602 32.8999 30.1004 33.8401 30.1004 34.9999L30.1004 53.1999C30.1004 54.3597 29.1602 55.2999 28.0004 55.2999C26.8406 55.2999 25.9004 54.3597 25.9004 53.1999L25.9004 34.9999C25.9004 33.8401 26.8406 32.8999 28.0004 32.8999Z" fill="#FFFCFC"/>
<path fill-rule="evenodd" clip-rule="evenodd" d="M19.6 27.2998C20.7598 27.2998 21.7 28.24 21.7 29.3998L21.7 51.7998C21.7 52.9596 20.7598 53.8998 19.6 53.8998C18.4402 53.8998 17.5 52.9596 17.5 51.7998L17.5 29.3998C17.5 28.24 18.4402 27.2998 19.6 27.2998Z" fill="#FFFCFC"/>
<path fill-rule="evenodd" clip-rule="evenodd" d="M11.1996 37.1001C12.3594 37.1001 13.2996 38.0403 13.2996 39.2001L13.2996 47.6001C13.2996 48.7599 12.3594 49.7001 11.1996 49.7001C10.0398 49.7001 9.09961 48.7599 9.09961 47.6001L9.09961 39.2001C9.09961 38.0403 10.0398 37.1001 11.1996 37.1001Z" fill="#FFFCFC"/>
<path fill-rule="evenodd" clip-rule="evenodd" d="M35.4102 11.8999H39.9002V16.3899L38.1945 14.6842L27.3962 26.1177L18.2821 19.808L8.89517 29.1949C8.6218 29.4682 8.17859 29.4682 7.90522 29.1949C7.63185 28.9215 7.63185 28.4783 7.90522 28.2049L18.1183 17.9918L27.2042 24.2821L37.2042 13.6938L35.4102 11.8999Z" fill="#FFFCFC"/>
</svg>
