<svg width="56" height="56" viewBox="0 0 56 56" fill="none" xmlns="http://www.w3.org/2000/svg">
<path fill-rule="evenodd" clip-rule="evenodd" d="M36.167 32.375C40.5162 32.375 44.042 28.8492 44.042 24.5C44.042 20.1508 40.5162 16.625 36.167 16.625C31.8177 16.625 28.292 20.1508 28.292 24.5C28.292 28.8492 31.8177 32.375 36.167 32.375ZM36.167 35C41.966 35 46.667 30.299 46.667 24.5C46.667 18.701 41.966 14 36.167 14C30.368 14 25.667 18.701 25.667 24.5C25.667 30.299 30.368 35 36.167 35Z" fill="#FFFCFC"/>
<path fill-rule="evenodd" clip-rule="evenodd" d="M16.3333 37.3333C20.1993 37.3333 23.3333 34.1993 23.3333 30.3333C23.3333 26.4673 20.1993 23.3333 16.3333 23.3333C12.4673 23.3333 9.33333 26.4673 9.33333 30.3333C9.33333 34.1993 12.4673 37.3333 16.3333 37.3333ZM16.3333 39.6667C21.488 39.6667 25.6667 35.488 25.6667 30.3333C25.6667 25.1787 21.488 21 16.3333 21C11.1787 21 7 25.1787 7 30.3333C7 35.488 11.1787 39.6667 16.3333 39.6667Z" fill="#FFFCFC"/>
<path fill-rule="evenodd" clip-rule="evenodd" d="M28 52.5C41.531 52.5 52.5 41.531 52.5 28C52.5 14.469 41.531 3.5 28 3.5C14.469 3.5 3.5 14.469 3.5 28C3.5 41.531 14.469 52.5 28 52.5ZM28 56C43.464 56 56 43.464 56 28C56 12.536 43.464 0 28 0C12.536 0 0 12.536 0 28C0 43.464 12.536 56 28 56Z" fill="#FFFCFC"/>
<path fill-rule="evenodd" clip-rule="evenodd" d="M17.5387 42.5551C15.346 42.0679 12.7655 42.4819 8.84485 45.2822C8.32053 45.6567 7.59189 45.5353 7.21739 45.011C6.84289 44.4866 6.96434 43.758 7.48866 43.3835C11.7347 40.3507 14.9876 39.598 18.0448 40.2773C19.5233 40.6059 20.8804 41.2541 22.1987 42.0074C22.9369 42.4292 23.7293 42.9253 24.5333 43.4287C25.1105 43.7901 25.6937 44.1552 26.267 44.4992C26.8195 44.8308 26.9987 45.5474 26.6671 46.0999C26.3356 46.6524 25.619 46.8316 25.0665 46.5C24.3959 46.0976 23.7908 45.718 23.2157 45.3571C22.4662 44.8868 21.7676 44.4485 21.041 44.0333C19.8073 43.3283 18.6852 42.8099 17.5387 42.5551Z" fill="#FFFCFC"/>
<path fill-rule="evenodd" clip-rule="evenodd" d="M35.4673 38.7582C39.8904 37.7356 44.7629 39.8534 48.1395 43.5443C48.5745 44.0196 49.3124 44.0525 49.7878 43.6175C50.2632 43.1826 50.296 42.4446 49.8611 41.9692C46.1081 37.8671 40.4288 35.2162 34.9417 36.4849C29.3713 37.7728 24.527 42.9627 22.195 53.4127C22.0547 54.0415 22.4507 54.6651 23.0796 54.8054C23.7084 54.9458 24.332 54.5497 24.4723 53.9209C26.7033 43.9234 31.1275 39.7617 35.4673 38.7582Z" fill="#FFFCFC"/>
</svg>
