<svg width="72" height="32" viewBox="0 0 72 32" fill="none" xmlns="http://www.w3.org/2000/svg">
<path d="M61.4035 31.9883C60.4148 31.8337 59.6014 31.4784 58.9635 30.9221C58.3575 30.3968 57.895 29.7169 57.576 28.8826C57.3527 28.3263 57.1933 27.8319 57.0976 27.3992C57.0019 26.9357 57.1135 26.194 57.4325 25.1743C57.5282 24.1236 57.6877 23.0574 57.9109 21.9758C58.1661 20.8634 58.501 19.7354 58.9156 18.592C58.9156 18.592 58.9954 18.3293 59.1549 17.804C59.3143 17.2787 59.5057 16.7533 59.729 16.228C60.1117 15.0537 60.6699 13.7094 61.4035 12.1952C62.1371 10.681 62.9345 9.1822 63.7957 7.69888C64.6569 6.18465 65.4862 4.8713 66.2836 3.75881C67.1129 2.61541 67.7987 1.84285 68.3409 1.44112C68.628 1.1939 68.931 1.02393 69.2499 0.931226C69.6008 0.807617 69.9038 0.776715 70.159 0.838519C70.4141 0.869421 70.5417 1.00848 70.5417 1.2557C70.4779 1.44112 70.446 1.54928 70.446 1.58018C70.446 1.61108 70.5098 1.64199 70.6374 1.67289C70.9245 1.70379 71.0042 1.92011 70.8766 2.32184C70.7491 2.72357 70.5098 3.15621 70.159 3.61975C69.8081 4.08328 69.4094 4.43866 68.9629 4.68588C68.9629 4.68588 68.931 4.79404 68.8672 5.01036C68.8034 5.19578 68.5961 5.41209 68.2452 5.65931C68.1176 6.03014 67.99 6.33917 67.8625 6.58639C67.7349 6.83361 67.6711 6.95722 67.6711 6.95722C67.6711 6.95722 67.5913 7.08083 67.4319 7.32805C67.2724 7.54437 67.1129 7.83794 66.9534 8.20877C66.6664 8.5487 66.4271 8.85773 66.2358 9.13585C66.0763 9.38307 65.9965 9.58393 65.9965 9.73845C65.9965 9.73845 65.9009 9.90841 65.7095 10.2483C65.55 10.5574 65.3746 10.8973 65.1832 11.2681C65.0237 11.608 64.944 11.8244 64.944 11.9171C64.944 11.9171 64.8802 11.9634 64.7526 12.0561C64.6569 12.1179 64.6091 12.1488 64.6091 12.1488C64.6091 12.3034 64.5134 12.6587 64.322 13.215C64.1306 13.7403 63.8595 14.2502 63.5087 14.7447C63.094 15.6099 62.7591 16.4597 62.5039 17.2941C62.2807 18.1285 62.0893 18.6693 61.9298 18.9165C61.866 19.0401 61.8182 19.2101 61.7863 19.4264C61.6587 19.55 61.5152 19.859 61.3557 20.3535C61.1962 20.8479 61.0846 21.4969 61.0208 22.3003C60.7975 22.9493 60.5902 23.5055 60.3988 23.9691C60.2393 24.4326 60.1596 24.6644 60.1596 24.6644C59.9682 24.6335 59.8566 24.8498 59.8247 25.3133C59.7928 25.7769 59.8087 26.3176 59.8725 26.9357C59.9363 27.5228 59.9842 28.0173 60.0161 28.419C60.2712 28.7899 60.6061 29.0062 61.0208 29.068C61.4673 29.0989 62.2328 29.0834 63.3173 29.0216C63.7 29.0834 64.1466 29.0834 64.6569 29.0216C65.1673 28.9289 65.6297 28.9135 66.0444 28.9753C66.3315 28.9753 66.778 28.9598 67.384 28.9289C67.9901 28.8671 68.5801 28.7899 69.1543 28.6971C70.143 28.6044 70.7331 28.5735 70.9245 28.6044C71.1478 28.6044 71.371 28.728 71.5943 28.9753C71.977 29.4697 72.0887 29.8251 71.9292 30.0414C71.8016 30.2577 71.4348 30.4431 70.8288 30.5976C69.6167 30.9067 68.3887 31.1693 67.1448 31.3857C65.9009 31.6329 64.7686 31.8028 63.7479 31.8956C62.7272 31.9883 61.9458 32.0192 61.4035 31.9883Z" fill="#76BBFB"/>
<path d="M48.4991 31.5716C48.4991 31.5716 48.4194 31.4634 48.2599 31.2471C48.1004 31.0617 47.8612 30.7681 47.5422 30.3664C47.3828 29.9337 47.2233 29.2539 47.0638 28.3268C46.9362 27.3688 46.9203 26.1482 47.016 24.6648C46.9522 24.2013 46.9522 23.4597 47.016 22.4399C47.1116 21.4201 47.2392 20.2921 47.3987 19.056C47.5901 17.789 47.7815 16.5684 47.9728 15.3941C48.1961 14.2198 48.4034 13.2773 48.5948 12.5665C48.7224 10.6197 48.85 9.29084 48.9776 8.58008C49.1051 7.83842 49.1689 7.39034 49.1689 7.23583C49.137 7.11222 48.85 7.40579 48.3077 8.11655C47.7655 8.7964 47.1595 9.70803 46.4897 10.8514C46.075 11.5004 45.6923 12.0721 45.3414 12.5665C45.0225 13.03 44.7992 13.3391 44.6716 13.4936C44.3845 13.8953 44.1134 14.3898 43.8583 14.9769C43.635 15.5332 43.1565 16.4911 42.4229 17.8508C41.1471 19.7668 40.1424 21.2038 39.4088 22.1617C38.7071 23.0888 38.1329 23.6914 37.6864 23.9695C37.2398 24.2168 36.7933 24.294 36.3467 24.2013C35.4218 23.985 34.7838 23.6142 34.433 23.0888C34.114 22.5635 33.9227 21.6364 33.8589 20.3076C33.827 19.4732 33.811 18.747 33.811 18.129C33.811 17.5109 33.811 17.0937 33.811 16.8774C33.9386 16.5993 33.9705 16.2903 33.9067 15.9503C33.8748 15.6104 33.8748 15.3632 33.9067 15.2087C33.8748 15.0851 33.9227 14.8533 34.0502 14.5134C34.2097 14.1425 34.3054 13.7408 34.3373 13.3082C34.433 12.721 34.5127 12.0103 34.5765 11.1759C34.6722 10.3106 34.7201 9.53806 34.7201 8.85821C34.752 8.17835 34.7201 7.80752 34.6244 7.74572C34.6882 7.86933 34.6244 8.05474 34.433 8.30196C34.2735 8.51828 34.1459 8.70369 34.0502 8.85821C33.4442 9.63077 32.7425 10.836 31.9451 12.4738C31.1477 14.0807 30.127 16.1203 28.8831 18.5925C28.7874 19.2724 28.5163 20.1531 28.0697 21.2347C27.6232 22.3163 27.1767 23.2742 26.7301 24.1086C26.5387 24.603 26.3155 25.1593 26.0603 25.7773C25.8051 26.3645 25.55 26.9207 25.2948 27.4461C25.0396 27.9714 24.8004 28.3886 24.5771 28.6976C24.1625 29.8101 23.7957 30.4745 23.4767 30.6908C23.1897 30.9381 22.7112 30.8454 22.0414 30.4127C21.5949 30.011 21.2919 29.6093 21.1324 29.2075C20.9729 28.8058 21.0686 28.3113 21.4194 27.7242C21.7384 27.3843 22.0574 26.8898 22.3763 26.2409C22.7272 25.5919 23.0142 24.9739 23.2375 24.3867C23.4927 23.7996 23.6043 23.4596 23.5724 23.3669C23.5405 23.2433 23.5884 23.0734 23.7159 22.8571C23.8754 22.6098 24.1944 22.1463 24.6728 21.4664C24.6409 21.3428 24.7685 20.9102 25.0556 20.1685C25.3745 19.396 25.8051 18.4843 26.3474 17.4337C26.4431 17.2791 26.5387 17.0937 26.6344 16.8774C26.7301 16.6611 26.762 16.4757 26.7301 16.3212C26.8258 16.1976 26.9055 16.0276 26.9693 15.8113C27.065 15.595 27.2086 15.425 27.3999 15.3014C27.4637 15.0233 27.5913 14.6833 27.7827 14.2816C27.9741 13.8799 28.0857 13.5399 28.1176 13.2618C28.2452 12.9837 28.3568 12.7365 28.4525 12.5202C28.5801 12.3038 28.7236 12.103 28.8831 11.9176C29.0107 11.8249 29.1223 11.6703 29.218 11.454C29.3137 11.2377 29.4253 11.0677 29.5529 10.9441C29.6805 10.5733 29.8878 10.1407 30.1749 9.64622C30.4619 9.15178 30.8128 8.59554 31.2274 7.97749C31.6421 7.35943 32.0727 6.71048 32.5192 6.03063C32.7425 5.6907 32.9179 5.38167 33.0455 5.10355C33.1731 4.79453 33.3964 4.40825 33.7153 3.94471C33.7153 3.94471 33.827 3.77474 34.0502 3.43481C34.3054 3.09489 34.5606 2.69316 34.8157 2.22962C34.9752 2.0133 35.1666 1.73518 35.3899 1.39525C35.6131 1.02442 35.8364 0.699942 36.0597 0.421819C36.283 0.143696 36.4424 0.00463526 36.5381 0.00463526C36.7295 -0.0262669 37.0325 0.0973435 37.4472 0.375466C37.8618 0.653589 38.2446 0.978064 38.5954 1.34889C38.9463 1.71972 39.1217 2.02875 39.1217 2.27597C39.1217 2.39958 39.0898 2.69316 39.026 3.15669C38.9622 3.62023 38.8665 4.16102 38.7389 4.77907C38.6114 5.39713 38.4519 5.98427 38.2605 6.54052C38.2286 7.18947 38.1329 7.94658 37.9734 8.81185C37.8459 9.67712 37.7023 10.5578 37.5428 11.454C37.3834 12.3502 37.2717 13.2155 37.2079 14.0498C37.1123 15.1005 36.9368 16.0276 36.6817 16.8311C36.4584 17.6345 36.3467 18.0363 36.3467 18.0363C36.4105 18.1599 36.4584 18.3144 36.4903 18.4998C36.5541 18.6543 36.586 18.8706 36.586 19.1487V20.1685L38.404 18.268C38.8506 17.5882 39.2652 16.9701 39.648 16.4139C40.0626 15.8267 40.4294 15.2859 40.7484 14.7915C40.7484 14.637 40.8122 14.467 40.9398 14.2816C41.0993 14.0962 41.2268 13.849 41.3225 13.5399C41.5139 13.4163 41.6893 13.2309 41.8488 12.9837C42.0402 12.7365 42.1199 12.4738 42.088 12.1957C42.407 11.7321 42.8535 11.1141 43.4277 10.3415C44.0018 9.53806 44.6238 8.68824 45.2936 7.79207C45.9953 6.86499 46.681 5.96882 47.3509 5.10355C48.0207 4.23828 48.6107 3.49662 49.1211 2.87857C49.6633 2.22962 50.0461 1.81243 50.2693 1.62702C50.7159 1.28709 51.1943 1.10167 51.7047 1.07077C52.2469 1.03987 52.7732 1.28709 53.2835 1.81243C53.6982 2.24507 53.9374 2.66225 54.0012 3.06398C54.065 3.43481 53.9533 3.97561 53.6663 4.68637C53.2835 5.92247 52.9008 7.08131 52.518 8.1629C52.1353 9.24449 51.9598 10.0016 51.9917 10.4342C51.8641 10.7124 51.7685 11.0523 51.7047 11.454C51.6409 11.8558 51.593 12.1802 51.5611 12.4274C51.4335 12.7056 51.3379 12.9682 51.2741 13.2155C51.2422 13.4627 51.1465 13.6481 50.987 13.7717C50.987 13.9262 51.0189 14.1889 51.0827 14.5597C51.1784 14.8996 51.1943 15.255 51.1305 15.6259C50.684 18.4071 50.381 20.7248 50.2215 22.5789C50.062 24.4022 50.0461 25.7928 50.1737 26.7508C50.3331 27.6778 50.6202 28.2032 51.0348 28.3268C51.1624 28.2959 51.2262 28.3577 51.2262 28.5122C51.2581 28.6667 51.2103 29.0376 51.0827 29.6247C51.1146 29.8101 51.0986 30.0264 51.0348 30.2737C51.0029 30.49 50.9551 30.6908 50.8913 30.8763C50.8275 31.0617 50.7637 31.2007 50.6999 31.2934C50.4129 31.6025 50.1737 31.7724 49.9823 31.8033C49.8228 31.8342 49.3284 31.757 48.4991 31.5716Z" fill="#76BBFB"/>
<path d="M20.531 15.9043C20.4353 16.1207 20.0685 16.2906 19.4306 16.4142C18.7927 16.5378 17.772 16.6769 16.3686 16.8314C15.954 16.8623 15.332 16.8932 14.5027 16.9241C13.7053 16.955 12.8282 16.9859 11.8713 17.0168C10.9463 17.0477 10.1011 17.0632 9.33555 17.0632C8.57005 17.0323 8.04376 16.9859 7.7567 16.9241C7.7567 16.9241 7.67696 17.0014 7.51748 17.1559C7.3899 17.3104 7.32611 17.5113 7.32611 17.7585C7.10283 18.1293 6.81577 18.701 6.46491 19.4736C6.14595 20.2461 5.77915 21.096 5.3645 22.023C4.98175 22.9501 4.61495 23.8772 4.26409 24.8043C3.94513 25.7313 3.67402 26.5348 3.45075 27.2147C3.22747 27.8945 3.11584 28.3581 3.11584 28.6053C2.82877 29.3469 2.65335 29.9804 2.58955 30.5058C2.52576 31.0311 2.41413 31.3401 2.25465 31.4329C2.22275 31.5565 2.01543 31.5874 1.63267 31.5256C1.24992 31.4638 0.930963 31.2938 0.675796 31.0157C0.293044 30.7375 0.0697726 30.4903 0.00598052 30.274C-0.0259155 30.0268 0.0697723 29.5633 0.293044 28.8834C0.388732 28.4817 0.548212 27.8945 0.771483 27.122C1.02665 26.3185 1.29777 25.4378 1.58483 24.4798C1.90379 23.5218 2.22275 22.5947 2.54171 21.6986C2.89257 20.7715 3.22747 20.0144 3.54643 19.4272C3.89729 18.8401 4.12056 18.3147 4.21625 17.8512C4.31194 17.3568 4.43952 16.9087 4.599 16.5069C4.5671 16.167 4.5671 15.9352 4.599 15.8116C4.6309 15.688 4.75848 15.5026 4.98175 15.2554C5.14123 15.1318 5.33261 14.9155 5.55588 14.6064C5.81105 14.2665 6.09811 13.7566 6.41707 13.0768C6.51276 12.7677 6.65629 12.3505 6.84766 11.8252C7.07094 11.269 7.27826 10.7127 7.46964 10.1565C7.66101 9.56932 7.83644 9.07488 7.99592 8.67315C8.1554 8.27141 8.23514 8.0551 8.23514 8.02419C8.29893 7.90058 8.39462 7.66881 8.5222 7.32889C8.64979 6.95806 8.74547 6.66448 8.80927 6.44816C8.93685 6.01553 9.03254 5.66015 9.09633 5.38203C9.19202 5.1039 9.17607 4.96484 9.04849 4.96484C8.79332 5.02665 8.28298 5.073 7.51748 5.1039C7.13473 5.16571 6.84766 5.21206 6.65629 5.24297C6.49681 5.24297 6.35328 5.25842 6.22569 5.28932C5.90673 5.32022 5.61967 5.28932 5.3645 5.19661C5.10933 5.10391 4.98175 4.91849 4.98175 4.64037C5.04554 4.14593 5.22097 3.74419 5.50804 3.43517C5.82699 3.09524 6.22569 2.90983 6.70413 2.87892C6.92741 2.81712 7.16663 2.77076 7.42179 2.73986C7.70886 2.67805 8.09161 2.58535 8.57005 2.46174C9.17607 2.33813 9.63856 2.24542 9.95752 2.18361C10.3084 2.09091 10.5795 2.07546 10.7709 2.13726C10.9303 2.04455 11.0739 1.95185 11.2015 1.85914C11.329 1.73553 11.3928 1.61192 11.3928 1.48831C11.3928 1.3338 11.4566 1.22564 11.5842 1.16383C11.7437 1.07112 11.9191 1.02477 12.1105 1.02477C12.3019 0.993868 12.4933 1.00932 12.6846 1.07112C12.9079 1.13293 13.0674 1.24109 13.1631 1.3956C13.2269 1.48831 13.3704 1.56556 13.5937 1.62737C13.8169 1.68917 14.2156 1.68917 14.7898 1.62737C15.3958 1.53466 16.241 1.38015 17.3255 1.16383C17.8996 1.10203 18.6173 1.04022 19.4785 0.978418C20.3716 0.916612 21.0733 0.962965 21.5836 1.11748C22.1258 1.02477 22.6043 0.993868 23.0189 1.02477C23.4655 1.02477 23.7685 0.962966 23.928 0.839355C24.5978 0.962966 25.0762 1.05567 25.3633 1.11748C25.6822 1.14838 25.9374 1.24109 26.1288 1.3956C26.2564 1.51921 26.2883 1.64282 26.2245 1.76643C26.1926 1.85914 26.1766 1.90549 26.1766 1.90549C26.049 1.84369 26.065 1.85914 26.2245 1.95185C26.3839 2.01365 26.4956 2.07546 26.5594 2.13726C26.7826 2.22997 26.9262 2.35358 26.99 2.50809C27.0538 2.6317 27.0857 2.75531 27.0857 2.87892C27.0857 3.00253 27.0697 3.11069 27.0378 3.2034C27.0059 3.48152 26.8464 3.65149 26.5594 3.71329C26.2723 3.74419 25.5546 3.74419 24.4064 3.71329C23.0349 3.52787 21.6793 3.46607 20.3397 3.52788C19.0319 3.55878 17.5009 3.69784 15.7466 3.94506C15.1087 3.97596 14.5346 4.06867 14.0243 4.22318C13.5458 4.34679 13.2747 4.4086 13.2109 4.4086C13.0833 4.4086 12.8601 4.62492 12.5411 5.05755C12.2221 5.45928 11.9191 6.06188 11.6321 6.86535C11.5045 7.08166 11.2812 7.57611 10.9622 8.34867C10.6433 9.12123 10.2924 9.9556 9.90968 10.8518C9.55882 11.7479 9.23986 12.536 8.9528 13.2158C8.69763 13.8957 8.53815 14.2665 8.47436 14.3283C8.9209 14.4519 9.63856 14.5137 10.6273 14.5137C11.648 14.5137 12.7644 14.4828 13.9764 14.421C15.2204 14.3283 16.3527 14.2356 17.3733 14.1429C17.8518 14.0502 18.3462 13.9729 18.8565 13.9111C19.3987 13.8184 19.7496 13.803 19.9091 13.8648C20.0685 13.9575 20.2121 14.1429 20.3397 14.421C20.4672 14.6682 20.547 14.9309 20.5789 15.209C20.6427 15.4872 20.6267 15.7189 20.531 15.9043Z" fill="#76BBFB"/>
</svg>
