<svg width="56" height="56" viewBox="0 0 56 56" fill="none" xmlns="http://www.w3.org/2000/svg">
<path fill-rule="evenodd" clip-rule="evenodd" d="M28 52.5C41.531 52.5 52.5 41.531 52.5 28C52.5 14.469 41.531 3.5 28 3.5C14.469 3.5 3.5 14.469 3.5 28C3.5 41.531 14.469 52.5 28 52.5ZM28 56C43.464 56 56 43.464 56 28C56 12.536 43.464 0 28 0C12.536 0 0 12.536 0 28C0 43.464 12.536 56 28 56Z" fill="#FFFCFC"/>
<path fill-rule="evenodd" clip-rule="evenodd" d="M17.5003 17.4998C15.5673 17.4998 14.0003 19.0668 14.0003 20.9998V48.9998C14.0003 49.6442 13.478 50.1665 12.8337 50.1665C12.1893 50.1665 11.667 49.6442 11.667 48.9998V20.9998C11.667 17.7782 14.2787 15.1665 17.5003 15.1665H50.167C50.8113 15.1665 51.3337 15.6888 51.3337 16.3332C51.3337 16.9775 50.8113 17.4998 50.167 17.4998H17.5003Z" fill="#FFFCFC"/>
<path fill-rule="evenodd" clip-rule="evenodd" d="M25.667 24.7335H21.0003C20.4849 24.7335 20.067 25.1514 20.067 25.6668V30.3335C20.067 30.849 20.4849 31.2668 21.0003 31.2668H25.667C26.1825 31.2668 26.6003 30.849 26.6003 30.3335V25.6668C26.6003 25.1514 26.1825 24.7335 25.667 24.7335ZM21.0003 23.3335C19.7117 23.3335 18.667 24.3782 18.667 25.6668V30.3335C18.667 31.6222 19.7117 32.6668 21.0003 32.6668H25.667C26.9557 32.6668 28.0003 31.6222 28.0003 30.3335V25.6668C28.0003 24.3782 26.9557 23.3335 25.667 23.3335H21.0003Z" fill="#FFFCFC"/>
<path fill-rule="evenodd" clip-rule="evenodd" d="M25.667 41.0665H21.0003C20.4849 41.0665 20.067 41.4844 20.067 41.9998V46.6665C20.067 47.182 20.4849 47.5998 21.0003 47.5998H25.667C26.1825 47.5998 26.6003 47.182 26.6003 46.6665V41.9998C26.6003 41.4844 26.1825 41.0665 25.667 41.0665ZM21.0003 39.6665C19.7117 39.6665 18.667 40.7112 18.667 41.9998V46.6665C18.667 47.9552 19.7117 48.9998 21.0003 48.9998H25.667C26.9557 48.9998 28.0003 47.9552 28.0003 46.6665V41.9998C28.0003 40.7112 26.9557 39.6665 25.667 39.6665H21.0003Z" fill="#FFFCFC"/>
<path fill-rule="evenodd" clip-rule="evenodd" d="M31.5 25.6667C31.5 25.0223 32.0223 24.5 32.6667 24.5L53.6667 24.5C54.311 24.5 54.8333 25.0223 54.8333 25.6667C54.8333 26.311 54.311 26.8333 53.6667 26.8333L32.6667 26.8333C32.0223 26.8333 31.5 26.311 31.5 25.6667Z" fill="#FFFCFC"/>
<path fill-rule="evenodd" clip-rule="evenodd" d="M31.5 30.3332C31.5 29.6888 32.0223 29.1665 32.6667 29.1665L53.6667 29.1665C54.311 29.1665 54.8333 29.6888 54.8333 30.3332C54.8333 30.9775 54.311 31.4998 53.6667 31.4998L32.6667 31.4998C32.0223 31.4998 31.5 30.9775 31.5 30.3332Z" fill="#FFFCFC"/>
<path fill-rule="evenodd" clip-rule="evenodd" d="M31.5 42.0002C31.5 41.3558 32.0223 40.8335 32.6667 40.8335L49 40.8335C49.6443 40.8335 50.1667 41.3558 50.1667 42.0002C50.1667 42.6445 49.6443 43.1668 49 43.1668L32.6667 43.1668C32.0223 43.1668 31.5 42.6445 31.5 42.0002Z" fill="#FFFCFC"/>
<path fill-rule="evenodd" clip-rule="evenodd" d="M31.5 46.6667C31.5 46.0223 32.0223 45.5 32.6667 45.5L37.3333 45.5C37.9777 45.5 38.5 46.0223 38.5 46.6667C38.5 47.311 37.9777 47.8333 37.3333 47.8333L32.6667 47.8333C32.0223 47.8333 31.5 47.311 31.5 46.6667Z" fill="#FFFCFC"/>
<path fill-rule="evenodd" clip-rule="evenodd" d="M29.8446 22.3839C30.3689 22.7584 30.4903 23.4871 30.1158 24.0114L25.265 30.8026C24.3159 32.1313 22.3306 32.0993 21.4248 30.7407L20.0291 28.6471C19.6717 28.111 19.8165 27.3866 20.3526 27.0292C20.8888 26.6718 21.6131 26.8167 21.9705 27.3528L23.3662 29.4464L28.2171 22.6552C28.5916 22.1308 29.3203 22.0094 29.8446 22.3839Z" fill="#FFFCFC"/>
</svg>
